<svg width="140" height="40" viewBox="0 0 140 40" fill="none" xmlns="http://www.w3.org/2000/svg">
<path d="M8 33.5429V7.40952H13.2034L23.6863 21.5048C23.8382 21.6825 24.0281 21.9365 24.256 22.2667C24.4839 22.5714 24.6991 22.8762 24.9017 23.181C25.1042 23.4857 25.2435 23.727 25.3195 23.9048H25.5094C25.5094 23.473 25.5094 23.054 25.5094 22.6476C25.5094 22.2159 25.5094 21.8349 25.5094 21.5048V7.40952H30.8647V33.5429H25.6613L14.9506 19.1048C14.6974 18.7492 14.4315 18.3556 14.153 17.9238C13.8744 17.4921 13.6719 17.1619 13.5453 16.9333H13.3554C13.3554 17.3143 13.3554 17.6952 13.3554 18.0762C13.3554 18.4317 13.3554 18.7746 13.3554 19.1048V33.5429H8Z" fill="#404040"/>
<path d="M45.2561 34C43.0532 34 41.2047 33.6317 39.7108 32.8952C38.2169 32.1333 37.0901 30.9778 36.3305 29.4286C35.5708 27.8794 35.191 25.9111 35.191 23.5238C35.191 21.1111 35.5708 19.1429 36.3305 17.619C37.0901 16.0698 38.2042 14.927 39.6728 14.1905C41.1668 13.4286 42.9899 13.0476 45.1421 13.0476C47.1678 13.0476 48.877 13.4159 50.2696 14.1524C51.6623 14.8635 52.7131 15.981 53.4221 17.5048C54.131 19.0032 54.4855 20.946 54.4855 23.3333V24.7048H40.5464C40.597 25.873 40.7743 26.8635 41.0781 27.6762C41.4073 28.4889 41.9011 29.0984 42.5594 29.5048C43.2431 29.8857 44.142 30.0762 45.2561 30.0762C45.8638 30.0762 46.4082 30 46.8893 29.8476C47.3957 29.6952 47.8261 29.4667 48.1806 29.1619C48.5351 28.8571 48.8137 28.4762 49.0162 28.019C49.2188 27.5619 49.3201 27.0413 49.3201 26.4571H54.4855C54.4855 27.727 54.2576 28.8317 53.8019 29.7714C53.3461 30.7111 52.7131 31.4984 51.9028 32.1333C51.0925 32.7429 50.1177 33.2127 48.9782 33.5429C47.8641 33.8476 46.6234 34 45.2561 34ZM40.6224 21.3524H49.0542C49.0542 20.5905 48.9529 19.9302 48.7504 19.3714C48.5731 18.8127 48.3199 18.3556 47.9907 18C47.6616 17.6444 47.2564 17.3905 46.7753 17.2381C46.3195 17.0603 45.8005 16.9714 45.2181 16.9714C44.2559 16.9714 43.4456 17.1365 42.7873 17.4667C42.1543 17.7714 41.6605 18.254 41.306 18.9143C40.9769 19.5492 40.749 20.3619 40.6224 21.3524Z" fill="#404040"/>
<path d="M58.359 33.5429V6H63.6384V33.5429H58.359Z" fill="#404040"/>
<path d="M76.5749 34C75.1823 34 73.9289 33.8476 72.8148 33.5429C71.7006 33.2381 70.7511 32.819 69.9662 32.2857C69.1812 31.727 68.5735 31.0667 68.1431 30.3048C67.7379 29.5429 67.5354 28.6794 67.5354 27.7143C67.5354 27.6127 67.5354 27.5111 67.5354 27.4095C67.5354 27.3079 67.548 27.2317 67.5733 27.181H72.6628C72.6628 27.2317 72.6628 27.2825 72.6628 27.3333C72.6628 27.3841 72.6628 27.4349 72.6628 27.4857C72.6881 28.1206 72.8907 28.6413 73.2705 29.0476C73.6503 29.4286 74.1441 29.7079 74.7518 29.8857C75.3848 30.0635 76.0432 30.1524 76.7268 30.1524C77.3345 30.1524 77.9169 30.1016 78.474 30C79.0563 29.873 79.5374 29.6571 79.9173 29.3524C80.3224 29.0476 80.525 28.654 80.525 28.1714C80.525 27.5619 80.2718 27.0921 79.7653 26.7619C79.2842 26.4317 78.6385 26.1651 77.8283 25.9619C77.0433 25.7587 76.1824 25.5302 75.2456 25.2762C74.3847 25.073 73.5237 24.8444 72.6628 24.5905C71.8019 24.3111 71.017 23.9556 70.308 23.5238C69.6243 23.0921 69.0673 22.5333 68.6368 21.8476C68.2064 21.1365 67.9911 20.2476 67.9911 19.181C67.9911 18.1397 68.219 17.2381 68.6748 16.4762C69.1306 15.6889 69.7509 15.0413 70.5359 14.5333C71.3461 14.0254 72.283 13.6571 73.3465 13.4286C74.4353 13.1746 75.6001 13.0476 76.8408 13.0476C78.0055 13.0476 79.0943 13.1746 80.1072 13.4286C81.12 13.6571 82.0062 14.0127 82.7658 14.4952C83.5255 14.9524 84.1205 15.5365 84.551 16.2476C84.9814 16.9333 85.1967 17.7079 85.1967 18.5714C85.1967 18.7492 85.1967 18.9143 85.1967 19.0667C85.1967 19.219 85.184 19.3206 85.1587 19.3714H80.1072V19.0667C80.1072 18.6095 79.9679 18.2286 79.6894 17.9238C79.4108 17.5937 79.0057 17.3397 78.474 17.1619C77.9676 16.9841 77.3472 16.8952 76.6129 16.8952C76.1065 16.8952 75.638 16.9333 75.2076 17.0095C74.8024 17.0857 74.448 17.2 74.1441 17.3524C73.8403 17.5048 73.5997 17.6952 73.4225 17.9238C73.2705 18.127 73.1946 18.381 73.1946 18.6857C73.1946 19.1175 73.3718 19.473 73.7263 19.7524C74.1061 20.0063 74.5999 20.2222 75.2076 20.4C75.8153 20.5778 76.4863 20.7683 77.2206 20.9714C78.1321 21.2254 79.0817 21.4794 80.0692 21.7333C81.082 21.9619 82.0189 22.2794 82.8798 22.6857C83.7407 23.0921 84.437 23.6762 84.9688 24.4381C85.5005 25.1746 85.7664 26.1778 85.7664 27.4476C85.7664 28.6667 85.5258 29.6952 85.0447 30.5333C84.589 31.3714 83.9433 32.0444 83.1077 32.5524C82.2721 33.0603 81.2972 33.4286 80.1831 33.6571C79.069 33.8857 77.8663 34 76.5749 34Z" fill="#404040"/>
<path d="M98.7812 34C96.6036 34 94.7552 33.6317 93.2359 32.8952C91.7167 32.1333 90.5646 30.9778 89.7796 29.4286C88.9947 27.854 88.6022 25.8857 88.6022 23.5238C88.6022 21.1111 88.9947 19.1429 89.7796 17.619C90.5646 16.0698 91.7167 14.927 93.2359 14.1905C94.7552 13.4286 96.6036 13.0476 98.7812 13.0476C101.009 13.0476 102.871 13.4286 104.364 14.1905C105.884 14.927 107.036 16.0698 107.821 17.619C108.606 19.1429 108.998 21.1111 108.998 23.5238C108.998 25.8857 108.606 27.854 107.821 29.4286C107.036 30.9778 105.884 32.1333 104.364 32.8952C102.871 33.6317 101.009 34 98.7812 34ZM98.7812 29.8857C99.9459 29.8857 100.87 29.6698 101.554 29.2381C102.263 28.8063 102.782 28.146 103.111 27.2571C103.44 26.3683 103.605 25.2762 103.605 23.981V23.0667C103.605 21.7714 103.44 20.6794 103.111 19.7905C102.782 18.9016 102.263 18.2413 101.554 17.8095C100.87 17.3524 99.9459 17.1238 98.7812 17.1238C97.6417 17.1238 96.7175 17.3524 96.0086 17.8095C95.3249 18.2413 94.8185 18.9016 94.4893 19.7905C94.1601 20.6794 93.9956 21.7714 93.9956 23.0667V23.981C93.9956 25.2762 94.1601 26.3683 94.4893 27.2571C94.8185 28.146 95.3249 28.8063 96.0086 29.2381C96.7175 29.6698 97.6417 29.8857 98.7812 29.8857Z" fill="#404040"/>
<path d="M112.883 33.5429V13.5048H117.251L117.669 16.2476H117.934C118.39 15.5873 118.935 15.0159 119.568 14.5333C120.226 14.0508 120.96 13.6825 121.771 13.4286C122.581 13.1746 123.467 13.0476 124.429 13.0476C125.746 13.0476 126.898 13.2889 127.886 13.7714C128.873 14.254 129.633 15.0159 130.164 16.0571C130.721 17.0984 131 18.4571 131 20.1333V33.5429H125.721V20.9714C125.721 20.3365 125.645 19.8032 125.493 19.3714C125.341 18.9143 125.113 18.546 124.809 18.2667C124.531 17.9619 124.176 17.746 123.746 17.619C123.315 17.4921 122.834 17.4286 122.302 17.4286C121.517 17.4286 120.808 17.619 120.175 18C119.542 18.381 119.049 18.9016 118.694 19.5619C118.34 20.2222 118.162 20.9841 118.162 21.8476V33.5429H112.883Z" fill="#404040"/>
</svg>
