<svg width="112" height="32" viewBox="0 0 112 32" fill="none" xmlns="http://www.w3.org/2000/svg">
<path d="M1 28.5918V5.2585H5.65348L15.0284 17.8435C15.1642 18.0023 15.3341 18.229 15.5379 18.5238C15.7417 18.7959 15.9342 19.068 16.1153 19.3401C16.2965 19.6122 16.421 19.8277 16.489 19.9864H16.6588C16.6588 19.6009 16.6588 19.2268 16.6588 18.8639C16.6588 18.4785 16.6588 18.1383 16.6588 17.8435V5.2585H21.4481V28.5918H16.7947L7.21596 15.7007C6.98951 15.3832 6.75174 15.0317 6.50265 14.6463C6.25356 14.2608 6.07241 13.966 5.95918 13.7619H5.78935C5.78935 14.102 5.78935 14.4422 5.78935 14.7823C5.78935 15.0998 5.78935 15.4059 5.78935 15.7007V28.5918H1Z" fill="#404040"/>
<path d="M34.3184 29C32.3484 29 30.6953 28.6712 29.3593 28.0136C28.0232 27.3333 27.0155 26.3016 26.3362 24.9184C25.6569 23.5351 25.3172 21.7778 25.3172 19.6463C25.3172 17.4921 25.6569 15.7347 26.3362 14.3742C27.0155 12.9909 28.0119 11.9705 29.3253 11.3129C30.6613 10.6327 32.2917 10.2925 34.2165 10.2925C36.0281 10.2925 37.5566 10.6213 38.8021 11.2789C40.0475 11.9138 40.9873 12.9116 41.6213 14.2721C42.2554 15.61 42.5724 17.3447 42.5724 19.4762V20.7007H30.1065C30.1518 21.7438 30.3103 22.6281 30.5821 23.3537C30.8765 24.0794 31.318 24.6236 31.9068 24.9864C32.5182 25.3265 33.3221 25.4966 34.3184 25.4966C34.8619 25.4966 35.3488 25.4286 35.779 25.2925C36.2319 25.1565 36.6169 24.9524 36.9339 24.6803C37.2509 24.4082 37.5 24.068 37.6812 23.6599C37.8623 23.2517 37.9529 22.7868 37.9529 22.2653H42.5724C42.5724 23.3991 42.3686 24.3855 41.961 25.2245C41.5534 26.0635 40.9873 26.7664 40.2627 27.3333C39.538 27.8776 38.6662 28.2971 37.6472 28.5918C36.6508 28.8639 35.5413 29 34.3184 29ZM30.1745 17.7075H37.7151C37.7151 17.0272 37.6246 16.4376 37.4434 15.9388C37.2849 15.4399 37.0584 15.0317 36.7641 14.7143C36.4697 14.3968 36.1074 14.1701 35.6771 14.034C35.2695 13.8753 34.8053 13.7959 34.2845 13.7959C33.424 13.7959 32.6993 13.9433 32.1106 14.2381C31.5445 14.5102 31.1029 14.941 30.7859 15.5306C30.4915 16.0975 30.2877 16.8231 30.1745 17.7075Z" fill="#404040"/>
<path d="M46.0365 28.5918V4H50.7579V28.5918H46.0365Z" fill="#404040"/>
<path d="M62.3271 29C61.0817 29 59.9608 28.8639 58.9644 28.5918C57.9681 28.3197 57.1189 27.9456 56.4169 27.4694C55.7149 26.9705 55.1714 26.381 54.7865 25.7007C54.4242 25.0204 54.243 24.2494 54.243 23.3878C54.243 23.2971 54.243 23.2063 54.243 23.1156C54.243 23.0249 54.2543 22.9569 54.277 22.9116H58.8285C58.8285 22.9569 58.8285 23.0023 58.8285 23.0476C58.8285 23.093 58.8285 23.1383 58.8285 23.1837C58.8512 23.7506 59.0323 24.2154 59.372 24.5782C59.7117 24.9184 60.1533 25.1678 60.6967 25.3265C61.2629 25.4853 61.8516 25.5646 62.463 25.5646C63.0065 25.5646 63.5273 25.5193 64.0255 25.4286C64.5463 25.3152 64.9766 25.1224 65.3162 24.8503C65.6786 24.5782 65.8597 24.2268 65.8597 23.7959C65.8597 23.2517 65.6333 22.8322 65.1804 22.5374C64.7501 22.2426 64.1727 22.0045 63.4481 21.8231C62.7461 21.6417 61.9762 21.4376 61.1383 21.2109C60.3684 21.0295 59.5985 20.8254 58.8285 20.5986C58.0586 20.3492 57.3566 20.0317 56.7226 19.6463C56.1112 19.2608 55.613 18.7619 55.228 18.1497C54.8431 17.5147 54.6506 16.7211 54.6506 15.7687C54.6506 14.839 54.8544 14.034 55.262 13.3537C55.6696 12.6508 56.2244 12.0726 56.9264 11.619C57.651 11.1655 58.4889 10.8367 59.44 10.6327C60.4137 10.4059 61.4553 10.2925 62.5649 10.2925C63.6066 10.2925 64.5803 10.4059 65.4861 10.6327C66.3919 10.8367 67.1844 11.1542 67.8638 11.585C68.5431 11.9932 69.0753 12.5147 69.4602 13.1497C69.8452 13.7619 70.0377 14.4535 70.0377 15.2245C70.0377 15.3832 70.0377 15.5306 70.0377 15.6667C70.0377 15.8027 70.0263 15.8934 70.0037 15.9388H65.4861V15.6667C65.4861 15.2585 65.3615 14.9184 65.1124 14.6463C64.8633 14.3515 64.501 14.1247 64.0255 13.966C63.5726 13.8073 63.0178 13.7279 62.3611 13.7279C61.9082 13.7279 61.4893 13.7619 61.1043 13.8299C60.742 13.898 60.425 14 60.1533 14.1361C59.8815 14.2721 59.6664 14.4422 59.5079 14.6463C59.372 14.8277 59.3041 15.0544 59.3041 15.3265C59.3041 15.712 59.4626 16.0295 59.7796 16.2789C60.1193 16.5057 60.5609 16.6984 61.1043 16.8571C61.6478 17.0159 62.2479 17.1859 62.9046 17.3673C63.7198 17.5941 64.569 17.8209 65.4521 18.0476C66.3579 18.2517 67.1957 18.5351 67.9657 18.898C68.7356 19.2608 69.3583 19.7823 69.8339 20.4626C70.3094 21.1202 70.5472 22.0159 70.5472 23.1497C70.5472 24.2381 70.332 25.1565 69.9018 25.9048C69.4942 26.6531 68.9167 27.254 68.1695 27.7075C67.4222 28.161 66.5504 28.4898 65.554 28.6939C64.5576 28.898 63.482 29 62.3271 29Z" fill="#404040"/>
<path d="M82.1864 29C80.239 29 78.5859 28.6712 77.2272 28.0136C75.8686 27.3333 74.8382 26.3016 74.1363 24.9184C73.4343 23.5125 73.0833 21.7551 73.0833 19.6463C73.0833 17.4921 73.4343 15.7347 74.1363 14.3742C74.8382 12.9909 75.8686 11.9705 77.2272 11.3129C78.5859 10.6327 80.239 10.2925 82.1864 10.2925C84.1792 10.2925 85.8435 10.6327 87.1796 11.3129C88.5383 11.9705 89.5686 12.9909 90.2706 14.3742C90.9726 15.7347 91.3235 17.4921 91.3235 19.6463C91.3235 21.7551 90.9726 23.5125 90.2706 24.9184C89.5686 26.3016 88.5383 27.3333 87.1796 28.0136C85.8435 28.6712 84.1792 29 82.1864 29ZM82.1864 25.3265C83.2281 25.3265 84.0546 25.1338 84.666 24.7483C85.3001 24.3628 85.7643 23.7732 86.0587 22.9796C86.3531 22.1859 86.5002 21.2109 86.5002 20.0544V19.2381C86.5002 18.0816 86.3531 17.1066 86.0587 16.3129C85.7643 15.5193 85.3001 14.9297 84.666 14.5442C84.0546 14.1361 83.2281 13.932 82.1864 13.932C81.1674 13.932 80.3409 14.1361 79.7068 14.5442C79.0954 14.9297 78.6425 15.5193 78.3482 16.3129C78.0538 17.1066 77.9066 18.0816 77.9066 19.2381V20.0544C77.9066 21.2109 78.0538 22.1859 78.3482 22.9796C78.6425 23.7732 79.0954 24.3628 79.7068 24.7483C80.3409 25.1338 81.1674 25.3265 82.1864 25.3265Z" fill="#404040"/>
<path d="M94.7977 28.5918V10.7007H98.7039L99.0776 13.1497H99.3154C99.723 12.5601 100.21 12.0499 100.776 11.619C101.365 11.1882 102.021 10.8594 102.746 10.6327C103.471 10.4059 104.263 10.2925 105.124 10.2925C106.301 10.2925 107.332 10.5079 108.215 10.9388C109.098 11.3696 109.777 12.0499 110.253 12.9796C110.751 13.9093 111 15.1224 111 16.619V28.5918H106.279V17.3673C106.279 16.8005 106.211 16.3243 106.075 15.9388C105.939 15.5306 105.735 15.2018 105.463 14.9524C105.214 14.6803 104.897 14.4875 104.512 14.3742C104.127 14.2608 103.697 14.2041 103.222 14.2041C102.52 14.2041 101.886 14.3742 101.319 14.7143C100.753 15.0544 100.312 15.5193 99.9947 16.1088C99.6777 16.6984 99.5191 17.3787 99.5191 18.1497V28.5918H94.7977Z" fill="#404040"/>
</svg>
